<mxfile host="app.diagrams.net" modified="2020-11-20T08:02:55.254Z" agent="5.0 (Macintosh)" etag="hhJsSRFDVMvGPCLemHPB" version="13.10.0" type="github">
  <diagram id="2-eU7eX-f_0jOV25Edck" name="Page-1">
    <mxGraphModel dx="1212" dy="691" grid="1" gridSize="10" guides="1" tooltips="1" connect="1" arrows="1" fold="1" page="1" pageScale="1" pageWidth="850" pageHeight="1100" math="0" shadow="0">
      <root>
        <mxCell id="0" />
        <mxCell id="1" parent="0" />
        <mxCell id="vMrNVRmX08gafX2vzBnL-1" value="In memory DB" style="whiteSpace=wrap;html=1;aspect=fixed;" vertex="1" parent="1">
          <mxGeometry x="320" y="240" width="70" height="70" as="geometry" />
        </mxCell>
        <mxCell id="vMrNVRmX08gafX2vzBnL-2" value="Persisted DB" style="whiteSpace=wrap;html=1;aspect=fixed;" vertex="1" parent="1">
          <mxGeometry x="380" y="410" width="70" height="70" as="geometry" />
        </mxCell>
        <mxCell id="vMrNVRmX08gafX2vzBnL-3" value="Persisted append log" style="whiteSpace=wrap;html=1;aspect=fixed;" vertex="1" parent="1">
          <mxGeometry x="270" y="330" width="70" height="70" as="geometry" />
        </mxCell>
      </root>
    </mxGraphModel>
  </diagram>
</mxfile>
